<svg width="100" height="125" xmlns="http://www.w3.org/2000/svg" data-name="Layer 1">
 <title>Artboard 6</title>

 <g>
  <title>Layer 1</title>
  <path fill="#ffffff" id="svg_1" d="m8.87,49.39l12.94,5.37a75.61,75.61 0 0 0 -2.81,9.1a2.76,2.76 0 0 0 0.72,2.6l13.81,13.83a2.76,2.76 0 0 0 2.6,0.72a75.61,75.61 0 0 0 9.1,-2.82l5.37,12.93999a2.09,2.09 0 0 0 3.41,0.68l7.18,-7.18a14,14 0 0 0 4.07,-10.63l-0.35,-6.8c15.02,-11.41 28.92999,-30.74 33.09,-62.55a2.33,2.33 0 0 0 -2.65,-2.65c-31.81,4.14 -51.14,18 -62.6,33.05l-6.75,-0.31a14,14 0 0 0 -10.62,4.06l-7.19,7.2a2.09,2.09 0 0 0 0.68,3.39zm53.13,-23.69a8.67,8.67 0 1 1 0,12.3a8.67,8.67 0 0 1 0,-12.3zm-60,69.81c0.74,-13.62 7.35,-21.12 11.14,-24.34a1.16,1.16 0 0 1 1.86,1.08a21.12,21.12 0 0 0 -0.18,6.21a7.65,7.65 0 0 0 6.67,6.67a21.12,21.12 0 0 0 6.26,-0.13a1.16,1.16 0 0 1 1.08,1.9c-3.22,3.74 -10.72,10.35 -24.34,11.1a2.36,2.36 0 0 1 -2.49,-2.49z"/>
 </g>
</svg>