<?xml version="1.0" encoding="UTF-8"?>
<!-- Generator: CustomSymbols v2.7.2.48 by @serious_bret https://bretlester.com/app_content/CustomSymbols/ -->
<!-- Guides: Left/Right -0.076/-0.076 Cap/Base 0.223/0.127 -->
<!-- Settings: RefScale 1.0 Min/Max Stroke Scales 0.5/2.21 -->
<!DOCTYPE svg
PUBLIC "-//W3C//DTD SVG 1.1//EN"
       "http://www.w3.org/Graphics/SVG/1.1/DTD/svg11.dtd">
<svg version="1.1" xmlns="http://www.w3.org/2000/svg" xmlns:xlink="http://www.w3.org/1999/xlink" width="3300" height="2200">
<![CDATA[<?xml version="1.0" encoding="UTF-8"?><svg id="Layer_1" xmlns="http://www.w3.org/2000/svg" viewBox="0 0 701.39 1000"><defs><style>.cls-1{fill:#231f20;}</style></defs><path class="cls-1" d="M540.09,421.66c-4.34-131.71,21.57-282.41-92.4-377.5-69.6-58.07-120.09-58.88-190.21-2.38-117.32,94.53-91.29,246.75-95.53,379.88-23.08,30.88-53.85,55.28-79.31,83.75-47.26,52.83-109.92,92.78-69.84,178.43,37.83,80.85,117.14,43.07,168.5,58.09,3.39.99,52.33,42.54,54.21,45.55,7.75,12.46-2.88,45.56-.11,66.2,4.69,34.71,72.54,140.5,108.69,146.03,44.11,6.77,117.33-107.49,122.54-146.03,2.8-20.64-7.84-53.74-.09-66.2,1.87-3.01,50.81-44.56,54.21-45.55,55.2-16.16,99.67,24.15,153.71-39.72,92.4-109.21-78.07-205.36-134.37-280.55ZM360.86,910.79h-19.69c-123.44-158.87,143.49-161.41,19.69,0ZM376.86,313.17c-52.83,33.62-97.83-47.78-50.09-74.9,57.26-32.54,91.57,48.51,50.09,74.9Z"/></svg>]]>
 <g id="Notes">
  <rect height="2200" id="artboard" style="fill:white;opacity:1" width="3300" x="0" y="0"/>
  <line id="" style="fill:none;stroke:black;opacity:1;stroke-width:0.5;" x1="263" x2="3036" y1="292" y2="292"/>
  <text id="reftext1" style="stroke:none;fill:black;font-family:-apple-system,&quot;SF Pro Display&quot;,&quot;SF Pro Text&quot;,Helvetica,sans-serif;font-weight:bold;" transform="matrix(1 0 0 1 263 322)">Weight/Scale Variations</text>
  <text id="reftext2" style="stroke:none;fill:black;font-family:-apple-system,&quot;SF Pro Display&quot;,&quot;SF Pro Text&quot;,Helvetica,sans-serif;text-anchor:middle;" transform="matrix(1 0 0 1 559.711 322)">Ultralight</text>
  <text style="stroke:none;fill:black;font-family:-apple-system,&quot;SF Pro Display&quot;,&quot;SF Pro Text&quot;,Helvetica,sans-serif;text-anchor:middle;" transform="matrix(1 0 0 1 856.422 322)">Thin</text>
  <text style="stroke:none;fill:black;font-family:-apple-system,&quot;SF Pro Display&quot;,&quot;SF Pro Text&quot;,Helvetica,sans-serif;text-anchor:middle;" transform="matrix(1 0 0 1 1153.13 322)">Light</text>
  <text style="stroke:none;fill:black;font-family:-apple-system,&quot;SF Pro Display&quot;,&quot;SF Pro Text&quot;,Helvetica,sans-serif;text-anchor:middle;" transform="matrix(1 0 0 1 1449.84 322)">Regular</text>
  <text style="stroke:none;fill:black;font-family:-apple-system,&quot;SF Pro Display&quot;,&quot;SF Pro Text&quot;,Helvetica,sans-serif;text-anchor:middle;" transform="matrix(1 0 0 1 1746.56 322)">Medium</text>
  <text style="stroke:none;fill:black;font-family:-apple-system,&quot;SF Pro Display&quot;,&quot;SF Pro Text&quot;,Helvetica,sans-serif;text-anchor:middle;" transform="matrix(1 0 0 1 2043.27 322)">Semibold</text>
  <text style="stroke:none;fill:black;font-family:-apple-system,&quot;SF Pro Display&quot;,&quot;SF Pro Text&quot;,Helvetica,sans-serif;text-anchor:middle;" transform="matrix(1 0 0 1 2339.98 322)">Bold</text>
  <text style="stroke:none;fill:black;font-family:-apple-system,&quot;SF Pro Display&quot;,&quot;SF Pro Text&quot;,Helvetica,sans-serif;text-anchor:middle;" transform="matrix(1 0 0 1 2636.69 322)">Heavy</text>
  <text style="stroke:none;fill:black;font-family:-apple-system,&quot;SF Pro Display&quot;,&quot;SF Pro Text&quot;,Helvetica,sans-serif;text-anchor:middle;" transform="matrix(1 0 0 1 2933.4 322)">Black</text>
  <line id="" style="fill:none;stroke:black;opacity:1;stroke-width:0.5;" x1="263" x2="3036" y1="1903" y2="1903"/>
  <g id="" transform="matrix(1 0 0 1 263 1933)">
   <path d="M9.24805 0.830078C13.5547 0.830078 17.1387-2.74414 17.1387-7.05078C17.1387-11.3574 13.5449-14.9316 9.23828-14.9316C4.94141-14.9316 1.36719-11.3574 1.36719-7.05078C1.36719-2.74414 4.95117 0.830078 9.24805 0.830078ZM9.24805-0.654297C5.70312-0.654297 2.87109-3.49609 2.87109-7.05078C2.87109-10.6055 5.69336-13.4473 9.23828-13.4473C12.793-13.4473 15.6348-10.6055 15.6445-7.05078C15.6543-3.49609 12.8027-0.654297 9.24805-0.654297ZM6.39648-6.31836L8.50586-6.31836L8.50586-4.19922C8.50586-3.75977 8.79883-3.45703 9.22852-3.45703C9.67773-3.45703 9.9707-3.75977 9.9707-4.19922L9.9707-6.31836L12.0996-6.31836C12.5391-6.31836 12.8418-6.61133 12.8418-7.04102C12.8418-7.48047 12.5391-7.7832 12.0996-7.7832L9.9707-7.7832L9.9707-9.89258C9.9707-10.3418 9.67773-10.6445 9.22852-10.6445C8.79883-10.6445 8.50586-10.3418 8.50586-9.89258L8.50586-7.7832L6.39648-7.7832C5.94727-7.7832 5.64453-7.48047 5.64453-7.04102C5.64453-6.61133 5.94727-6.31836 6.39648-6.31836Z"/>
  </g>
  <g id="" transform="matrix(1 0 0 1 281.506 1933)">
   <path d="M11.709 2.91016C17.1582 2.91016 21.6699-1.61133 21.6699-7.05078C21.6699-12.5 17.1484-17.0117 11.6992-17.0117C6.25977-17.0117 1.74805-12.5 1.74805-7.05078C1.74805-1.61133 6.26953 2.91016 11.709 2.91016ZM11.709 1.25C7.09961 1.25 3.41797-2.44141 3.41797-7.05078C3.41797-11.6602 7.08984-15.3516 11.6992-15.3516C16.3086-15.3516 20-11.6602 20.0098-7.05078C20.0195-2.44141 16.3184 1.25 11.709 1.25ZM7.98828-6.23047L10.8789-6.23047L10.8789-3.32031C10.8789-2.83203 11.2109-2.5 11.6895-2.5C12.1777-2.5 12.5195-2.83203 12.5195-3.32031L12.5195-6.23047L15.4297-6.23047C15.918-6.23047 16.25-6.5625 16.25-7.04102C16.25-7.5293 15.918-7.87109 15.4297-7.87109L12.5195-7.87109L12.5195-10.7617C12.5195-11.2695 12.1777-11.6016 11.6895-11.6016C11.2109-11.6016 10.8789-11.2598 10.8789-10.7617L10.8789-7.87109L7.98828-7.87109C7.48047-7.87109 7.14844-7.5293 7.14844-7.04102C7.14844-6.5625 7.49023-6.23047 7.98828-6.23047Z"/>
  </g>
  <g id="" transform="matrix(1 0 0 1 304.924 1933)">
   <path d="M14.9707 5.66406C21.9336 5.66406 27.6953-0.0976562 27.6953-7.05078C27.6953-14.0137 21.9238-19.7754 14.9609-19.7754C8.00781-19.7754 2.25586-14.0137 2.25586-7.05078C2.25586-0.0976562 8.01758 5.66406 14.9707 5.66406ZM14.9707 3.84766C8.93555 3.84766 4.08203-1.01562 4.08203-7.05078C4.08203-13.0957 8.92578-17.9492 14.9609-17.9492C21.0059-17.9492 25.8594-13.0957 25.8691-7.05078C25.8789-1.01562 21.0156 3.84766 14.9707 3.84766ZM10.0586-6.14258L14.0625-6.14258L14.0625-2.12891C14.0625-1.5918 14.4336-1.2207 14.9512-1.2207C15.4883-1.2207 15.8594-1.5918 15.8594-2.12891L15.8594-6.14258L19.8828-6.14258C20.4102-6.14258 20.791-6.51367 20.791-7.03125C20.791-7.56836 20.4199-7.94922 19.8828-7.94922L15.8594-7.94922L15.8594-11.9531C15.8594-12.5098 15.4883-12.8809 14.9512-12.8809C14.4336-12.8809 14.0625-12.5 14.0625-11.9531L14.0625-7.94922L10.0586-7.94922C9.50195-7.94922 9.13086-7.56836 9.13086-7.03125C9.13086-6.51367 9.51172-6.14258 10.0586-6.14258Z"/>
  </g>
  <text style="stroke:none;fill:black;font-family:-apple-system,&quot;SF Pro Display&quot;,&quot;SF Pro Text&quot;,Helvetica,sans-serif;font-weight:bold;" transform="matrix(1 0 0 1 263 1953)">Design Variations</text>
  <text style="stroke:none;fill:black;font-family:-apple-system,&quot;SF Pro Display&quot;,&quot;SF Pro Text&quot;,Helvetica,sans-serif;" transform="matrix(1 0 0 1 263 1971)">Symbols are supported in up to nine weights and three scales.</text>
  <text style="stroke:none;fill:black;font-family:-apple-system,&quot;SF Pro Display&quot;,&quot;SF Pro Text&quot;,Helvetica,sans-serif;" transform="matrix(1 0 0 1 263 1989)">For optimal layout with text and other symbols, vertically align</text>
  <text style="stroke:none;fill:black;font-family:-apple-system,&quot;SF Pro Display&quot;,&quot;SF Pro Text&quot;,Helvetica,sans-serif;" transform="matrix(1 0 0 1 263 2007)">symbols with the adjacent text.</text>
  <line id="" style="fill:none;stroke:#00AEEF;stroke-width:0.5;opacity:1.0;" x1="776" x2="776" y1="1919" y2="1933"/>
  <g id="" transform="matrix(1 0 0 1 776 1933)">
   <path d="M3.31055 0.126953C3.82812 0.126953 4.08203-0.0683594 4.26758-0.605469L5.52734-4.0625L11.2891-4.0625L12.5488-0.605469C12.7344-0.0683594 12.9883 0.126953 13.4961 0.126953C14.0137 0.126953 14.3457-0.185547 14.3457-0.673828C14.3457-0.839844 14.3164-0.986328 14.2383-1.20117L9.6582-13.3887C9.43359-13.9941 9.0332-14.2871 8.4082-14.2871C7.80273-14.2871 7.39258-13.9941 7.17773-13.3984L2.59766-1.19141C2.51953-0.976562 2.49023-0.830078 2.49023-0.664062C2.49023-0.175781 2.80273 0.126953 3.31055 0.126953ZM6.00586-5.53711L8.37891-12.1094L8.42773-12.1094L10.8008-5.53711Z"/>
  </g>
  <line id="" style="fill:none;stroke:#00AEEF;stroke-width:0.5;opacity:1.0;" x1="792.836" x2="792.836" y1="1919" y2="1933"/>
  <text style="stroke:none;fill:black;font-family:-apple-system,&quot;SF Pro Display&quot;,&quot;SF Pro Text&quot;,Helvetica,sans-serif;font-weight:bold;" transform="matrix(1 0 0 1 776 1953)">Margins</text>
  <text style="stroke:none;fill:black;font-family:-apple-system,&quot;SF Pro Display&quot;,&quot;SF Pro Text&quot;,Helvetica,sans-serif;" transform="matrix(1 0 0 1 776 1971)">Leading and trailing margins on the left and right side of each symbol</text>
  <text style="stroke:none;fill:black;font-family:-apple-system,&quot;SF Pro Display&quot;,&quot;SF Pro Text&quot;,Helvetica,sans-serif;" transform="matrix(1 0 0 1 776 1989)">can be adjusted by modifying the x-location of the margin guidelines.</text>
  <text style="stroke:none;fill:black;font-family:-apple-system,&quot;SF Pro Display&quot;,&quot;SF Pro Text&quot;,Helvetica,sans-serif;" transform="matrix(1 0 0 1 776 2007)">Modifications are automatically applied proportionally to all</text>
  <text style="stroke:none;fill:black;font-family:-apple-system,&quot;SF Pro Display&quot;,&quot;SF Pro Text&quot;,Helvetica,sans-serif;" transform="matrix(1 0 0 1 776 2025)">scales and weights.</text>
  <g id="" transform="matrix(1 0 0 1 1289 1933)">
   <path d="M2.8418 1.86523L4.54102 3.57422C5.40039 4.44336 6.38672 4.38477 7.31445 3.35938L17.4902-7.85156C17.7539-7.76367 18.0273-7.7832 18.3398-7.8418L19.4043-8.03711L20.0684-7.36328L20.0293-6.80664C19.9902-6.30859 20.1172-5.92773 20.6055-5.44922L21.3672-4.70703C21.8457-4.22852 22.4609-4.19922 22.9297-4.66797L25.8398-7.58789C26.3086-8.05664 26.2891-8.65234 25.8105-9.13086L25.0391-9.89258C24.5605-10.3711 24.1895-10.5273 23.7109-10.4883L23.1348-10.4395L22.4902-11.0742L22.7344-12.1973C22.8613-12.7637 22.7051-13.2031 22.1191-13.7891L19.9219-15.9766C16.582-19.2969 12.1484-19.2188 9.25781-16.3281C8.83789-15.918 8.80859-15.3418 9.04297-14.9512C9.27734-14.5898 9.73633-14.3555 10.3809-14.5215C11.8457-14.8633 13.3691-14.9219 14.7949-13.9844L14.209-12.5293C14.0137-12.0508 13.9844-11.6504 14.1113-11.2891L3.04688-0.898438C2.06055 0.0195312 1.98242 0.996094 2.8418 1.86523ZM10.752-15.957C13.1836-17.7344 16.4746-17.4316 18.7012-15.2051L21.1328-12.793C21.3672-12.5586 21.4062-12.373 21.3379-12.0312L21.0156-10.5469L22.5195-9.0625L23.5059-9.12109C23.7598-9.13086 23.8379-9.11133 24.0332-8.91602L24.6094-8.33984L22.168-5.89844L21.5918-6.47461C21.3965-6.66992 21.3672-6.74805 21.377-7.01172L21.4453-7.98828L19.9512-9.47266L18.4277-9.21875C18.1055-9.15039 17.959-9.17969 17.7148-9.41406L15.7129-11.416C15.459-11.6504 15.4297-11.8164 15.5859-12.1875L16.4648-14.2773C14.9023-15.7324 12.8711-16.3574 10.8398-15.7617C10.6836-15.7227 10.625-15.8496 10.752-15.957ZM5.27344 2.30469L4.10156 1.14258C3.63281 0.683594 3.74023 0.341797 4.14062-0.0195312L14.9512-10.1953L16.416-8.71094L6.42578 2.27539C6.07422 2.67578 5.74219 2.77344 5.27344 2.30469Z"/>
  </g>
  <text style="stroke:none;fill:black;font-family:-apple-system,&quot;SF Pro Display&quot;,&quot;SF Pro Text&quot;,Helvetica,sans-serif;font-weight:bold;" transform="matrix(1 0 0 1 1289 1953)">Exporting</text>
  <text style="stroke:none;fill:black;font-family:-apple-system,&quot;SF Pro Display&quot;,&quot;SF Pro Text&quot;,Helvetica,sans-serif;" transform="matrix(1 0 0 1 1289 1971)">Symbols should be outlined when exporting to ensure the</text>
  <text style="stroke:none;fill:black;font-family:-apple-system,&quot;SF Pro Display&quot;,&quot;SF Pro Text&quot;,Helvetica,sans-serif;" transform="matrix(1 0 0 1 1289 1989)">design is preserved when submitting to Xcode.</text>
  <text id="template-version" style="stroke:none;fill:black;font-family:-apple-system,&quot;SF Pro Display&quot;,&quot;SF Pro Text&quot;,Helvetica,sans-serif;text-anchor:end;" transform="matrix(1 0 0 1 3036 1933)">Template v.2.0</text>
  <text style="stroke:none;fill:black;font-family:-apple-system,&quot;SF Pro Display&quot;,&quot;SF Pro Text&quot;,Helvetica,sans-serif;text-anchor:end;" transform="matrix(1 0 0 1 3036 1951)">Requires Xcode 12 or greater</text>
  <text style="stroke:none;fill:black;font-family:-apple-system,&quot;SF Pro Display&quot;,&quot;SF Pro Text&quot;,Helvetica,sans-serif;" transform="matrix(1 0 0 1 263 726)">Small</text>
  <text style="stroke:none;fill:black;font-family:-apple-system,&quot;SF Pro Display&quot;,&quot;SF Pro Text&quot;,Helvetica,sans-serif;" transform="matrix(1 0 0 1 263 1156)">Medium</text>
  <text style="stroke:none;fill:black;font-family:-apple-system,&quot;SF Pro Display&quot;,&quot;SF Pro Text&quot;,Helvetica,sans-serif;" transform="matrix(1 0 0 1 263 1586)">Large</text>
 </g>
 <g id="Guides">
  <g id="H-reference" style="fill:#27AAE1;stroke:none;" transform="matrix(1 0 0 1 339 696)">
   <path d="M0.976562 0L3.66211 0L12.9883-24.4629L45.752-24.4629L55.127 0L57.7637 0L30.6152-70.459L28.125-70.459ZM29.3457-67.1387L29.4434-67.1387L44.873-26.709L13.8672-26.709Z"/>
  </g>
  <line id="Baseline-S" style="fill:none;stroke:#27AAE1;opacity:1;stroke-width:0.5;" x1="263" x2="3036" y1="696" y2="696"/>
  <line id="Capline-S" style="fill:none;stroke:#27AAE1;opacity:1;stroke-width:0.5;" x1="263" x2="3036" y1="625.541" y2="625.541"/>
  <g id="H-reference" style="fill:#27AAE1;stroke:none;" transform="matrix(1 0 0 1 339 1126)">
   <path d="M0.976562 0L3.66211 0L12.9883-24.4629L45.752-24.4629L55.127 0L57.7637 0L30.6152-70.459L28.125-70.459ZM29.3457-67.1387L29.4434-67.1387L44.873-26.709L13.8672-26.709Z"/>
  </g>
  <line id="Baseline-M" style="fill:none;stroke:#27AAE1;opacity:1;stroke-width:0.5;" x1="263" x2="3036" y1="1126" y2="1126"/>
  <line id="Capline-M" style="fill:none;stroke:#27AAE1;opacity:1;stroke-width:0.5;" x1="263" x2="3036" y1="1055.54" y2="1055.54"/>
  <g id="H-reference" style="fill:#27AAE1;stroke:none;" transform="matrix(1 0 0 1 339 1556)">
   <path d="M0.976562 0L3.66211 0L12.9883-24.4629L45.752-24.4629L55.127 0L57.7637 0L30.6152-70.459L28.125-70.459ZM29.3457-67.1387L29.4434-67.1387L44.873-26.709L13.8672-26.709Z"/>
  </g>
  <line id="Baseline-L" style="fill:none;stroke:#27AAE1;opacity:1;stroke-width:0.5;" x1="263" x2="3036" y1="1556" y2="1556"/>
  <line id="Capline-L" style="fill:none;stroke:#27AAE1;opacity:1;stroke-width:0.5;" x1="263" x2="3036" y1="1485.54" y2="1485.54"/>
  <line id="left-margin" x1="1407.3363549028845" x2="1407.3363549028845" y1="1030.79" y2="1150.12" style="fill:none;stroke:#00AEEF;stroke-width:0.5;opacity:1.0;"/>
  <line id="right-margin" x1="1494.9236450971152" x2="1494.9236450971152" y1="1030.79" y2="1150.12" style="fill:none;stroke:#00AEEF;stroke-width:0.5;opacity:1.0;"/>
 </g>
 <g id="Symbols">
  <g id="Black-L" transform="matrix(1.0,0.0,0.0,1.0,2885.6402411672925,1444.139934014423)">  <path stroke-dasharray="none" stroke-width="1px" fill-rule="nonzero" fill="#000000" stroke-opacity="1" stroke-linecap="butt" stroke-miterlimit="4" stroke="none" stroke-linejoin="miter" fill-opacity="1" d="M75.524,58.963C74.917,40.545,78.54,19.472,62.603,6.175C52.871,-1.945,45.81,-2.058,36.005,5.842C19.599,19.061,23.239,40.347,22.646,58.963C19.419,63.281,15.116,66.693,11.556,70.674C4.947,78.062,-3.815,83.648,1.79,95.625C7.08,106.931,18.17,101.648,25.352,103.748C25.826,103.887,32.67,109.697,32.933,110.118C34.016,111.86,32.53,116.489,32.917,119.375C33.573,124.229,43.061,139.022,48.116,139.795C54.284,140.742,64.523,124.764,65.252,119.375C65.643,116.489,64.155,111.86,65.239,110.118C65.501,109.697,72.344,103.887,72.82,103.748C80.539,101.489,86.757,107.126,94.314,98.194C107.235,82.923,83.397,69.477,75.524,58.963ZM50.461,127.361L47.708,127.361C30.446,105.145,67.773,104.79,50.461,127.361ZM52.699,43.792C45.311,48.494,39.018,37.111,45.694,33.319C53.701,28.768,58.499,40.102,52.699,43.792ZM52.699,43.792"/>
</g>
  <g id="Heavy-L" transform="matrix(1.0,0.0,0.0,1.0,2588.9302411672925,1444.139934014423)">  <path stroke-opacity="1" stroke-dasharray="none" fill-opacity="1" stroke-linecap="butt" stroke-width="1px" fill-rule="nonzero" stroke="none" stroke-miterlimit="4" stroke-linejoin="miter" fill="#000000" d="M75.524,58.963C74.917,40.545,78.54,19.472,62.603,6.175C52.871,-1.945,45.81,-2.058,36.005,5.842C19.599,19.061,23.239,40.347,22.646,58.963C19.419,63.281,15.116,66.693,11.556,70.674C4.947,78.062,-3.815,83.648,1.79,95.625C7.08,106.931,18.17,101.648,25.352,103.748C25.826,103.887,32.67,109.697,32.933,110.118C34.016,111.86,32.53,116.489,32.917,119.375C33.573,124.229,43.061,139.022,48.116,139.795C54.284,140.742,64.523,124.764,65.252,119.375C65.643,116.489,64.155,111.86,65.239,110.118C65.501,109.697,72.344,103.887,72.82,103.748C80.539,101.489,86.757,107.126,94.314,98.194C107.235,82.923,83.397,69.477,75.524,58.963ZM50.461,127.361L47.708,127.361C30.446,105.145,67.773,104.79,50.461,127.361ZM52.699,43.792C45.311,48.494,39.018,37.111,45.694,33.319C53.701,28.768,58.499,40.102,52.699,43.792ZM52.699,43.792"/>
</g>
  <g id="Bold-L" transform="matrix(1.0,0.0,0.0,1.0,2292.2202411672924,1444.139934014423)">  <path stroke-linejoin="miter" fill="#000000" stroke-opacity="1" fill-opacity="1" stroke-linecap="butt" fill-rule="nonzero" stroke-dasharray="none" stroke="none" stroke-width="1px" stroke-miterlimit="4" d="M75.524,58.963C74.917,40.545,78.54,19.472,62.603,6.175C52.871,-1.945,45.81,-2.058,36.005,5.842C19.599,19.061,23.239,40.347,22.646,58.963C19.419,63.281,15.116,66.693,11.556,70.674C4.947,78.062,-3.815,83.648,1.79,95.625C7.08,106.931,18.17,101.648,25.352,103.748C25.826,103.887,32.67,109.697,32.933,110.118C34.016,111.86,32.53,116.489,32.917,119.375C33.573,124.229,43.061,139.022,48.116,139.795C54.284,140.742,64.523,124.764,65.252,119.375C65.643,116.489,64.155,111.86,65.239,110.118C65.501,109.697,72.344,103.887,72.82,103.748C80.539,101.489,86.757,107.126,94.314,98.194C107.235,82.923,83.397,69.477,75.524,58.963ZM50.461,127.361L47.708,127.361C30.446,105.145,67.773,104.79,50.461,127.361ZM52.699,43.792C45.311,48.494,39.018,37.111,45.694,33.319C53.701,28.768,58.499,40.102,52.699,43.792ZM52.699,43.792"/>
</g>
  <g id="Semibold-L" transform="matrix(1.0,0.0,0.0,1.0,1995.5102411672926,1444.139934014423)">  <path stroke-linecap="butt" stroke-dasharray="none" fill="#000000" stroke-width="1px" fill-opacity="1" stroke-opacity="1" stroke-miterlimit="4" fill-rule="nonzero" stroke="none" stroke-linejoin="miter" d="M75.524,58.963C74.917,40.545,78.54,19.472,62.603,6.175C52.871,-1.945,45.81,-2.058,36.005,5.842C19.599,19.061,23.239,40.347,22.646,58.963C19.419,63.281,15.116,66.693,11.556,70.674C4.947,78.062,-3.815,83.648,1.79,95.625C7.08,106.931,18.17,101.648,25.352,103.748C25.826,103.887,32.67,109.697,32.933,110.118C34.016,111.86,32.53,116.489,32.917,119.375C33.573,124.229,43.061,139.022,48.116,139.795C54.284,140.742,64.523,124.764,65.252,119.375C65.643,116.489,64.155,111.86,65.239,110.118C65.501,109.697,72.344,103.887,72.82,103.748C80.539,101.489,86.757,107.126,94.314,98.194C107.235,82.923,83.397,69.477,75.524,58.963ZM50.461,127.361L47.708,127.361C30.446,105.145,67.773,104.79,50.461,127.361ZM52.699,43.792C45.311,48.494,39.018,37.111,45.694,33.319C53.701,28.768,58.499,40.102,52.699,43.792ZM52.699,43.792"/>
</g>
  <g id="Medium-L" transform="matrix(1.0,0.0,0.0,1.0,1698.8002411672926,1444.139934014423)">  <path stroke-width="1px" stroke-dasharray="none" fill="#000000" fill-rule="nonzero" stroke-linejoin="miter" stroke="none" stroke-linecap="butt" stroke-opacity="1" stroke-miterlimit="4" fill-opacity="1" d="M75.524,58.963C74.917,40.545,78.54,19.472,62.603,6.175C52.871,-1.945,45.81,-2.058,36.005,5.842C19.599,19.061,23.239,40.347,22.646,58.963C19.419,63.281,15.116,66.693,11.556,70.674C4.947,78.062,-3.815,83.648,1.79,95.625C7.08,106.931,18.17,101.648,25.352,103.748C25.826,103.887,32.67,109.697,32.933,110.118C34.016,111.86,32.53,116.489,32.917,119.375C33.573,124.229,43.061,139.022,48.116,139.795C54.284,140.742,64.523,124.764,65.252,119.375C65.643,116.489,64.155,111.86,65.239,110.118C65.501,109.697,72.344,103.887,72.82,103.748C80.539,101.489,86.757,107.126,94.314,98.194C107.235,82.923,83.397,69.477,75.524,58.963ZM50.461,127.361L47.708,127.361C30.446,105.145,67.773,104.79,50.461,127.361ZM52.699,43.792C45.311,48.494,39.018,37.111,45.694,33.319C53.701,28.768,58.499,40.102,52.699,43.792ZM52.699,43.792"/>
</g>
  <g id="Regular-L" transform="matrix(1.0,0.0,0.0,1.0,1402.0902411672926,1444.139934014423)">  <path stroke-dasharray="none" stroke-width="1px" fill-rule="nonzero" stroke="none" stroke-linecap="butt" stroke-miterlimit="4" fill="#000000" stroke-linejoin="miter" stroke-opacity="1" fill-opacity="1" d="M75.524,58.963C74.917,40.545,78.54,19.472,62.603,6.175C52.871,-1.945,45.81,-2.058,36.005,5.842C19.599,19.061,23.239,40.347,22.646,58.963C19.419,63.281,15.116,66.693,11.556,70.674C4.947,78.062,-3.815,83.648,1.79,95.625C7.08,106.931,18.17,101.648,25.352,103.748C25.826,103.887,32.67,109.697,32.933,110.118C34.016,111.86,32.53,116.489,32.917,119.375C33.573,124.229,43.061,139.022,48.116,139.795C54.284,140.742,64.523,124.764,65.252,119.375C65.643,116.489,64.155,111.86,65.239,110.118C65.501,109.697,72.344,103.887,72.82,103.748C80.539,101.489,86.757,107.126,94.314,98.194C107.235,82.923,83.397,69.477,75.524,58.963ZM50.461,127.361L47.708,127.361C30.446,105.145,67.773,104.79,50.461,127.361ZM52.699,43.792C45.311,48.494,39.018,37.111,45.694,33.319C53.701,28.768,58.499,40.102,52.699,43.792ZM52.699,43.792"/>
</g>
  <g id="Light-L" transform="matrix(1.0,0.0,0.0,1.0,1105.3802411672928,1444.139934014423)">  <path stroke-width="1px" stroke="none" stroke-miterlimit="4" stroke-linejoin="miter" stroke-linecap="butt" stroke-opacity="1" fill-opacity="1" stroke-dasharray="none" fill="#000000" fill-rule="nonzero" d="M75.524,58.963C74.917,40.545,78.54,19.472,62.603,6.175C52.871,-1.945,45.81,-2.058,36.005,5.842C19.599,19.061,23.239,40.347,22.646,58.963C19.419,63.281,15.116,66.693,11.556,70.674C4.947,78.062,-3.815,83.648,1.79,95.625C7.08,106.931,18.17,101.648,25.352,103.748C25.826,103.887,32.67,109.697,32.933,110.118C34.016,111.86,32.53,116.489,32.917,119.375C33.573,124.229,43.061,139.022,48.116,139.795C54.284,140.742,64.523,124.764,65.252,119.375C65.643,116.489,64.155,111.86,65.239,110.118C65.501,109.697,72.344,103.887,72.82,103.748C80.539,101.489,86.757,107.126,94.314,98.194C107.235,82.923,83.397,69.477,75.524,58.963ZM50.461,127.361L47.708,127.361C30.446,105.145,67.773,104.79,50.461,127.361ZM52.699,43.792C45.311,48.494,39.018,37.111,45.694,33.319C53.701,28.768,58.499,40.102,52.699,43.792ZM52.699,43.792"/>
</g>
  <g id="Thin-L" transform="matrix(1.0,0.0,0.0,1.0,808.6702411672927,1444.139934014423)">  <path fill="#000000" stroke-width="1px" stroke-miterlimit="4" fill-opacity="1" stroke-linecap="butt" fill-rule="nonzero" stroke-linejoin="miter" stroke-opacity="1" stroke="none" stroke-dasharray="none" d="M75.524,58.963C74.917,40.545,78.54,19.472,62.603,6.175C52.871,-1.945,45.81,-2.058,36.005,5.842C19.599,19.061,23.239,40.347,22.646,58.963C19.419,63.281,15.116,66.693,11.556,70.674C4.947,78.062,-3.815,83.648,1.79,95.625C7.08,106.931,18.17,101.648,25.352,103.748C25.826,103.887,32.67,109.697,32.933,110.118C34.016,111.86,32.53,116.489,32.917,119.375C33.573,124.229,43.061,139.022,48.116,139.795C54.284,140.742,64.523,124.764,65.252,119.375C65.643,116.489,64.155,111.86,65.239,110.118C65.501,109.697,72.344,103.887,72.82,103.748C80.539,101.489,86.757,107.126,94.314,98.194C107.235,82.923,83.397,69.477,75.524,58.963ZM50.461,127.361L47.708,127.361C30.446,105.145,67.773,104.79,50.461,127.361ZM52.699,43.792C45.311,48.494,39.018,37.111,45.694,33.319C53.701,28.768,58.499,40.102,52.699,43.792ZM52.699,43.792"/>
</g>
  <g id="Ultralight-L" transform="matrix(1.0,0.0,0.0,1.0,511.9602411672927,1444.139934014423)">  <path stroke-miterlimit="4" stroke-dasharray="none" stroke="none" fill="#000000" stroke-width="1px" stroke-linecap="butt" stroke-linejoin="miter" stroke-opacity="1" fill-opacity="1" fill-rule="nonzero" d="M75.524,58.963C74.917,40.545,78.54,19.472,62.603,6.175C52.871,-1.945,45.81,-2.058,36.005,5.842C19.599,19.061,23.239,40.347,22.646,58.963C19.419,63.281,15.116,66.693,11.556,70.674C4.947,78.062,-3.815,83.648,1.79,95.625C7.08,106.931,18.17,101.648,25.352,103.748C25.826,103.887,32.67,109.697,32.933,110.118C34.016,111.86,32.53,116.489,32.917,119.375C33.573,124.229,43.061,139.022,48.116,139.795C54.284,140.742,64.523,124.764,65.252,119.375C65.643,116.489,64.155,111.86,65.239,110.118C65.501,109.697,72.344,103.887,72.82,103.748C80.539,101.489,86.757,107.126,94.314,98.194C107.235,82.923,83.397,69.477,75.524,58.963ZM50.461,127.361L47.708,127.361C30.446,105.145,67.773,104.79,50.461,127.361ZM52.699,43.792C45.311,48.494,39.018,37.111,45.694,33.319C53.701,28.768,58.499,40.102,52.699,43.792ZM52.699,43.792"/>
</g>
  <g id="Black-M" transform="matrix(1.0,0.0,0.0,1.0,2896.6646830754207,1031.3668524639422)">  <path stroke-dasharray="none" stroke-width="1px" fill-rule="nonzero" fill="#000000" stroke-opacity="1" stroke-linecap="butt" stroke-miterlimit="4" stroke="none" stroke-linejoin="miter" fill-opacity="1" d="M58.546,45.708C58.075,31.431,60.884,15.095,48.53,4.787C40.985,-1.508,35.512,-1.596,27.911,4.529C15.193,14.776,18.015,31.277,17.555,45.708C15.054,49.055,11.718,51.7,8.958,54.786C3.835,60.513,-2.957,64.844,1.388,74.128C5.488,82.892,14.085,78.797,19.653,80.425C20.02,80.532,25.325,85.037,25.529,85.363C26.369,86.713,25.217,90.301,25.517,92.539C26.026,96.301,33.381,107.769,37.299,108.369C42.081,109.102,50.018,96.717,50.583,92.539C50.886,90.301,49.733,86.713,50.573,85.363C50.776,85.037,56.081,80.532,56.449,80.425C62.433,78.673,67.253,83.043,73.111,76.12C83.128,64.281,64.649,53.859,58.546,45.708ZM39.117,98.73L36.983,98.73C23.602,81.508,52.537,81.233,39.117,98.73ZM40.852,33.948C35.125,37.592,30.247,28.768,35.422,25.828C41.629,22.301,45.348,31.087,40.852,33.948ZM40.852,33.948"/>
</g>
  <g id="Heavy-M" transform="matrix(1.0,0.0,0.0,1.0,2599.9546830754207,1031.3668524639422)">  <path stroke-opacity="1" stroke-dasharray="none" fill-opacity="1" stroke-linecap="butt" stroke-width="1px" fill-rule="nonzero" stroke="none" stroke-miterlimit="4" stroke-linejoin="miter" fill="#000000" d="M58.546,45.708C58.075,31.431,60.884,15.095,48.53,4.787C40.985,-1.508,35.512,-1.596,27.911,4.529C15.193,14.776,18.015,31.277,17.555,45.708C15.054,49.055,11.718,51.7,8.958,54.786C3.835,60.513,-2.957,64.844,1.388,74.128C5.488,82.892,14.085,78.797,19.653,80.425C20.02,80.532,25.325,85.037,25.529,85.363C26.369,86.713,25.217,90.301,25.517,92.539C26.026,96.301,33.381,107.769,37.299,108.369C42.081,109.102,50.018,96.717,50.583,92.539C50.886,90.301,49.733,86.713,50.573,85.363C50.776,85.037,56.081,80.532,56.449,80.425C62.433,78.673,67.253,83.043,73.111,76.12C83.128,64.281,64.649,53.859,58.546,45.708ZM39.117,98.73L36.983,98.73C23.602,81.508,52.537,81.233,39.117,98.73ZM40.852,33.948C35.125,37.592,30.247,28.768,35.422,25.828C41.629,22.301,45.348,31.087,40.852,33.948ZM40.852,33.948"/>
</g>
  <g id="Bold-M" transform="matrix(1.0,0.0,0.0,1.0,2303.2446830754207,1031.3668524639422)">  <path stroke-linejoin="miter" fill="#000000" stroke-opacity="1" fill-opacity="1" stroke-linecap="butt" fill-rule="nonzero" stroke-dasharray="none" stroke="none" stroke-width="1px" stroke-miterlimit="4" d="M58.546,45.708C58.075,31.431,60.884,15.095,48.53,4.787C40.985,-1.508,35.512,-1.596,27.911,4.529C15.193,14.776,18.015,31.277,17.555,45.708C15.054,49.055,11.718,51.7,8.958,54.786C3.835,60.513,-2.957,64.844,1.388,74.128C5.488,82.892,14.085,78.797,19.653,80.425C20.02,80.532,25.325,85.037,25.529,85.363C26.369,86.713,25.217,90.301,25.517,92.539C26.026,96.301,33.381,107.769,37.299,108.369C42.081,109.102,50.018,96.717,50.583,92.539C50.886,90.301,49.733,86.713,50.573,85.363C50.776,85.037,56.081,80.532,56.449,80.425C62.433,78.673,67.253,83.043,73.111,76.12C83.128,64.281,64.649,53.859,58.546,45.708ZM39.117,98.73L36.983,98.73C23.602,81.508,52.537,81.233,39.117,98.73ZM40.852,33.948C35.125,37.592,30.247,28.768,35.422,25.828C41.629,22.301,45.348,31.087,40.852,33.948ZM40.852,33.948"/>
</g>
  <g id="Semibold-M" transform="matrix(1.0,0.0,0.0,1.0,2006.5346830754206,1031.3668524639422)">  <path stroke-linecap="butt" stroke-dasharray="none" fill="#000000" stroke-width="1px" fill-opacity="1" stroke-opacity="1" stroke-miterlimit="4" fill-rule="nonzero" stroke="none" stroke-linejoin="miter" d="M58.546,45.708C58.075,31.431,60.884,15.095,48.53,4.787C40.985,-1.508,35.512,-1.596,27.911,4.529C15.193,14.776,18.015,31.277,17.555,45.708C15.054,49.055,11.718,51.7,8.958,54.786C3.835,60.513,-2.957,64.844,1.388,74.128C5.488,82.892,14.085,78.797,19.653,80.425C20.02,80.532,25.325,85.037,25.529,85.363C26.369,86.713,25.217,90.301,25.517,92.539C26.026,96.301,33.381,107.769,37.299,108.369C42.081,109.102,50.018,96.717,50.583,92.539C50.886,90.301,49.733,86.713,50.573,85.363C50.776,85.037,56.081,80.532,56.449,80.425C62.433,78.673,67.253,83.043,73.111,76.12C83.128,64.281,64.649,53.859,58.546,45.708ZM39.117,98.73L36.983,98.73C23.602,81.508,52.537,81.233,39.117,98.73ZM40.852,33.948C35.125,37.592,30.247,28.768,35.422,25.828C41.629,22.301,45.348,31.087,40.852,33.948ZM40.852,33.948"/>
</g>
  <g id="Medium-M" transform="matrix(1.0,0.0,0.0,1.0,1709.8246830754206,1031.3668524639422)">  <path stroke-width="1px" stroke-dasharray="none" fill="#000000" fill-rule="nonzero" stroke-linejoin="miter" stroke="none" stroke-linecap="butt" stroke-opacity="1" stroke-miterlimit="4" fill-opacity="1" d="M58.546,45.708C58.075,31.431,60.884,15.095,48.53,4.787C40.985,-1.508,35.512,-1.596,27.911,4.529C15.193,14.776,18.015,31.277,17.555,45.708C15.054,49.055,11.718,51.7,8.958,54.786C3.835,60.513,-2.957,64.844,1.388,74.128C5.488,82.892,14.085,78.797,19.653,80.425C20.02,80.532,25.325,85.037,25.529,85.363C26.369,86.713,25.217,90.301,25.517,92.539C26.026,96.301,33.381,107.769,37.299,108.369C42.081,109.102,50.018,96.717,50.583,92.539C50.886,90.301,49.733,86.713,50.573,85.363C50.776,85.037,56.081,80.532,56.449,80.425C62.433,78.673,67.253,83.043,73.111,76.12C83.128,64.281,64.649,53.859,58.546,45.708ZM39.117,98.73L36.983,98.73C23.602,81.508,52.537,81.233,39.117,98.73ZM40.852,33.948C35.125,37.592,30.247,28.768,35.422,25.828C41.629,22.301,45.348,31.087,40.852,33.948ZM40.852,33.948"/>
</g>
  <g id="Regular-M" transform="matrix(1.0,0.0,0.0,1.0,1413.1146830754205,1031.3668524639422)">  <path stroke-dasharray="none" stroke-width="1px" fill-rule="nonzero" stroke="none" stroke-linecap="butt" stroke-miterlimit="4" fill="#000000" stroke-linejoin="miter" stroke-opacity="1" fill-opacity="1" d="M58.546,45.708C58.075,31.431,60.884,15.095,48.53,4.787C40.985,-1.508,35.512,-1.596,27.911,4.529C15.193,14.776,18.015,31.277,17.555,45.708C15.054,49.055,11.718,51.7,8.958,54.786C3.835,60.513,-2.957,64.844,1.388,74.128C5.488,82.892,14.085,78.797,19.653,80.425C20.02,80.532,25.325,85.037,25.529,85.363C26.369,86.713,25.217,90.301,25.517,92.539C26.026,96.301,33.381,107.769,37.299,108.369C42.081,109.102,50.018,96.717,50.583,92.539C50.886,90.301,49.733,86.713,50.573,85.363C50.776,85.037,56.081,80.532,56.449,80.425C62.433,78.673,67.253,83.043,73.111,76.12C83.128,64.281,64.649,53.859,58.546,45.708ZM39.117,98.73L36.983,98.73C23.602,81.508,52.537,81.233,39.117,98.73ZM40.852,33.948C35.125,37.592,30.247,28.768,35.422,25.828C41.629,22.301,45.348,31.087,40.852,33.948ZM40.852,33.948"/>
</g>
  <g id="Light-M" transform="matrix(1.0,0.0,0.0,1.0,1116.4046830754207,1031.3668524639422)">  <path stroke-width="1px" stroke="none" stroke-miterlimit="4" stroke-linejoin="miter" stroke-linecap="butt" stroke-opacity="1" fill-opacity="1" stroke-dasharray="none" fill="#000000" fill-rule="nonzero" d="M58.546,45.708C58.075,31.431,60.884,15.095,48.53,4.787C40.985,-1.508,35.512,-1.596,27.911,4.529C15.193,14.776,18.015,31.277,17.555,45.708C15.054,49.055,11.718,51.7,8.958,54.786C3.835,60.513,-2.957,64.844,1.388,74.128C5.488,82.892,14.085,78.797,19.653,80.425C20.02,80.532,25.325,85.037,25.529,85.363C26.369,86.713,25.217,90.301,25.517,92.539C26.026,96.301,33.381,107.769,37.299,108.369C42.081,109.102,50.018,96.717,50.583,92.539C50.886,90.301,49.733,86.713,50.573,85.363C50.776,85.037,56.081,80.532,56.449,80.425C62.433,78.673,67.253,83.043,73.111,76.12C83.128,64.281,64.649,53.859,58.546,45.708ZM39.117,98.73L36.983,98.73C23.602,81.508,52.537,81.233,39.117,98.73ZM40.852,33.948C35.125,37.592,30.247,28.768,35.422,25.828C41.629,22.301,45.348,31.087,40.852,33.948ZM40.852,33.948"/>
</g>
  <g id="Thin-M" transform="matrix(1.0,0.0,0.0,1.0,819.6946830754207,1031.3668524639422)">  <path fill="#000000" stroke-width="1px" stroke-miterlimit="4" fill-opacity="1" stroke-linecap="butt" fill-rule="nonzero" stroke-linejoin="miter" stroke-opacity="1" stroke="none" stroke-dasharray="none" d="M58.546,45.708C58.075,31.431,60.884,15.095,48.53,4.787C40.985,-1.508,35.512,-1.596,27.911,4.529C15.193,14.776,18.015,31.277,17.555,45.708C15.054,49.055,11.718,51.7,8.958,54.786C3.835,60.513,-2.957,64.844,1.388,74.128C5.488,82.892,14.085,78.797,19.653,80.425C20.02,80.532,25.325,85.037,25.529,85.363C26.369,86.713,25.217,90.301,25.517,92.539C26.026,96.301,33.381,107.769,37.299,108.369C42.081,109.102,50.018,96.717,50.583,92.539C50.886,90.301,49.733,86.713,50.573,85.363C50.776,85.037,56.081,80.532,56.449,80.425C62.433,78.673,67.253,83.043,73.111,76.12C83.128,64.281,64.649,53.859,58.546,45.708ZM39.117,98.73L36.983,98.73C23.602,81.508,52.537,81.233,39.117,98.73ZM40.852,33.948C35.125,37.592,30.247,28.768,35.422,25.828C41.629,22.301,45.348,31.087,40.852,33.948ZM40.852,33.948"/>
</g>
  <g id="Ultralight-M" transform="matrix(1.0,0.0,0.0,1.0,522.9846830754207,1031.3668524639422)">  <path stroke-miterlimit="4" stroke-dasharray="none" stroke="none" fill="#000000" stroke-width="1px" stroke-linecap="butt" stroke-linejoin="miter" stroke-opacity="1" fill-opacity="1" fill-rule="nonzero" d="M58.546,45.708C58.075,31.431,60.884,15.095,48.53,4.787C40.985,-1.508,35.512,-1.596,27.911,4.529C15.193,14.776,18.015,31.277,17.555,45.708C15.054,49.055,11.718,51.7,8.958,54.786C3.835,60.513,-2.957,64.844,1.388,74.128C5.488,82.892,14.085,78.797,19.653,80.425C20.02,80.532,25.325,85.037,25.529,85.363C26.369,86.713,25.217,90.301,25.517,92.539C26.026,96.301,33.381,107.769,37.299,108.369C42.081,109.102,50.018,96.717,50.583,92.539C50.886,90.301,49.733,86.713,50.573,85.363C50.776,85.037,56.081,80.532,56.449,80.425C62.433,78.673,67.253,83.043,73.111,76.12C83.128,64.281,64.649,53.859,58.546,45.708ZM39.117,98.73L36.983,98.73C23.602,81.508,52.537,81.233,39.117,98.73ZM40.852,33.948C35.125,37.592,30.247,28.768,35.422,25.828C41.629,22.301,45.348,31.087,40.852,33.948ZM40.852,33.948"/>
</g>
  <g id="Black-S" transform="matrix(1.0,0.0,0.0,1.0,2904.914006848054,614.2573397175481)">  <path stroke-dasharray="none" stroke-width="1px" fill-rule="nonzero" fill="#000000" stroke-opacity="1" stroke-linecap="butt" stroke-miterlimit="4" stroke="none" stroke-linejoin="miter" fill-opacity="1" d="M45.841,35.789C45.473,24.61,47.672,11.819,37.999,3.748C32.091,-1.181,27.806,-1.249,21.854,3.546C11.896,11.57,14.106,24.49,13.746,35.789C11.787,38.41,9.175,40.481,7.014,42.898C3.003,47.382,-2.315,50.773,1.086,58.042C4.297,64.905,11.029,61.698,15.388,62.973C15.676,63.057,19.83,66.584,19.989,66.839C20.647,67.897,19.745,70.706,19.98,72.458C20.378,75.404,26.137,84.383,29.205,84.853C32.949,85.427,39.164,75.729,39.606,72.458C39.844,70.706,38.941,67.897,39.599,66.839C39.757,66.584,43.911,63.057,44.2,62.973C48.885,61.601,52.659,65.023,57.246,59.602C65.089,50.332,50.62,42.171,45.841,35.789ZM30.629,77.305L28.958,77.305C18.48,63.821,41.137,63.605,30.629,77.305ZM31.987,26.581C27.503,29.435,23.683,22.526,27.735,20.224C32.595,17.462,35.508,24.341,31.987,26.581ZM31.987,26.581"/>
</g>
  <g id="Heavy-S" transform="matrix(1.0,0.0,0.0,1.0,2608.204006848054,614.2573397175481)">  <path stroke-opacity="1" stroke-dasharray="none" fill-opacity="1" stroke-linecap="butt" stroke-width="1px" fill-rule="nonzero" stroke="none" stroke-miterlimit="4" stroke-linejoin="miter" fill="#000000" d="M45.841,35.789C45.473,24.61,47.672,11.819,37.999,3.748C32.091,-1.181,27.806,-1.249,21.854,3.546C11.896,11.57,14.106,24.49,13.746,35.789C11.787,38.41,9.175,40.481,7.014,42.898C3.003,47.382,-2.315,50.773,1.086,58.042C4.297,64.905,11.029,61.698,15.388,62.973C15.676,63.057,19.83,66.584,19.989,66.839C20.647,67.897,19.745,70.706,19.98,72.458C20.378,75.404,26.137,84.383,29.205,84.853C32.949,85.427,39.164,75.729,39.606,72.458C39.844,70.706,38.941,67.897,39.599,66.839C39.757,66.584,43.911,63.057,44.2,62.973C48.885,61.601,52.659,65.023,57.246,59.602C65.089,50.332,50.62,42.171,45.841,35.789ZM30.629,77.305L28.958,77.305C18.48,63.821,41.137,63.605,30.629,77.305ZM31.987,26.581C27.503,29.435,23.683,22.526,27.735,20.224C32.595,17.462,35.508,24.341,31.987,26.581ZM31.987,26.581"/>
</g>
  <g id="Bold-S" transform="matrix(1.0,0.0,0.0,1.0,2311.494006848054,614.2573397175481)">  <path stroke-linejoin="miter" fill="#000000" stroke-opacity="1" fill-opacity="1" stroke-linecap="butt" fill-rule="nonzero" stroke-dasharray="none" stroke="none" stroke-width="1px" stroke-miterlimit="4" d="M45.841,35.789C45.473,24.61,47.672,11.819,37.999,3.748C32.091,-1.181,27.806,-1.249,21.854,3.546C11.896,11.57,14.106,24.49,13.746,35.789C11.787,38.41,9.175,40.481,7.014,42.898C3.003,47.382,-2.315,50.773,1.086,58.042C4.297,64.905,11.029,61.698,15.388,62.973C15.676,63.057,19.83,66.584,19.989,66.839C20.647,67.897,19.745,70.706,19.98,72.458C20.378,75.404,26.137,84.383,29.205,84.853C32.949,85.427,39.164,75.729,39.606,72.458C39.844,70.706,38.941,67.897,39.599,66.839C39.757,66.584,43.911,63.057,44.2,62.973C48.885,61.601,52.659,65.023,57.246,59.602C65.089,50.332,50.62,42.171,45.841,35.789ZM30.629,77.305L28.958,77.305C18.48,63.821,41.137,63.605,30.629,77.305ZM31.987,26.581C27.503,29.435,23.683,22.526,27.735,20.224C32.595,17.462,35.508,24.341,31.987,26.581ZM31.987,26.581"/>
</g>
  <g id="Semibold-S" transform="matrix(1.0,0.0,0.0,1.0,2014.7840068480543,614.2573397175481)">  <path stroke-linecap="butt" stroke-dasharray="none" fill="#000000" stroke-width="1px" fill-opacity="1" stroke-opacity="1" stroke-miterlimit="4" fill-rule="nonzero" stroke="none" stroke-linejoin="miter" d="M45.841,35.789C45.473,24.61,47.672,11.819,37.999,3.748C32.091,-1.181,27.806,-1.249,21.854,3.546C11.896,11.57,14.106,24.49,13.746,35.789C11.787,38.41,9.175,40.481,7.014,42.898C3.003,47.382,-2.315,50.773,1.086,58.042C4.297,64.905,11.029,61.698,15.388,62.973C15.676,63.057,19.83,66.584,19.989,66.839C20.647,67.897,19.745,70.706,19.98,72.458C20.378,75.404,26.137,84.383,29.205,84.853C32.949,85.427,39.164,75.729,39.606,72.458C39.844,70.706,38.941,67.897,39.599,66.839C39.757,66.584,43.911,63.057,44.2,62.973C48.885,61.601,52.659,65.023,57.246,59.602C65.089,50.332,50.62,42.171,45.841,35.789ZM30.629,77.305L28.958,77.305C18.48,63.821,41.137,63.605,30.629,77.305ZM31.987,26.581C27.503,29.435,23.683,22.526,27.735,20.224C32.595,17.462,35.508,24.341,31.987,26.581ZM31.987,26.581"/>
</g>
  <g id="Medium-S" transform="matrix(1.0,0.0,0.0,1.0,1718.0740068480543,614.2573397175481)">  <path stroke-width="1px" stroke-dasharray="none" fill="#000000" fill-rule="nonzero" stroke-linejoin="miter" stroke="none" stroke-linecap="butt" stroke-opacity="1" stroke-miterlimit="4" fill-opacity="1" d="M45.841,35.789C45.473,24.61,47.672,11.819,37.999,3.748C32.091,-1.181,27.806,-1.249,21.854,3.546C11.896,11.57,14.106,24.49,13.746,35.789C11.787,38.41,9.175,40.481,7.014,42.898C3.003,47.382,-2.315,50.773,1.086,58.042C4.297,64.905,11.029,61.698,15.388,62.973C15.676,63.057,19.83,66.584,19.989,66.839C20.647,67.897,19.745,70.706,19.98,72.458C20.378,75.404,26.137,84.383,29.205,84.853C32.949,85.427,39.164,75.729,39.606,72.458C39.844,70.706,38.941,67.897,39.599,66.839C39.757,66.584,43.911,63.057,44.2,62.973C48.885,61.601,52.659,65.023,57.246,59.602C65.089,50.332,50.62,42.171,45.841,35.789ZM30.629,77.305L28.958,77.305C18.48,63.821,41.137,63.605,30.629,77.305ZM31.987,26.581C27.503,29.435,23.683,22.526,27.735,20.224C32.595,17.462,35.508,24.341,31.987,26.581ZM31.987,26.581"/>
</g>
  <g id="Regular-S" transform="matrix(1.0,0.0,0.0,1.0,1421.3640068480543,614.2573397175481)">  <path stroke-dasharray="none" stroke-width="1px" fill-rule="nonzero" stroke="none" stroke-linecap="butt" stroke-miterlimit="4" fill="#000000" stroke-linejoin="miter" stroke-opacity="1" fill-opacity="1" d="M45.841,35.789C45.473,24.61,47.672,11.819,37.999,3.748C32.091,-1.181,27.806,-1.249,21.854,3.546C11.896,11.57,14.106,24.49,13.746,35.789C11.787,38.41,9.175,40.481,7.014,42.898C3.003,47.382,-2.315,50.773,1.086,58.042C4.297,64.905,11.029,61.698,15.388,62.973C15.676,63.057,19.83,66.584,19.989,66.839C20.647,67.897,19.745,70.706,19.98,72.458C20.378,75.404,26.137,84.383,29.205,84.853C32.949,85.427,39.164,75.729,39.606,72.458C39.844,70.706,38.941,67.897,39.599,66.839C39.757,66.584,43.911,63.057,44.2,62.973C48.885,61.601,52.659,65.023,57.246,59.602C65.089,50.332,50.62,42.171,45.841,35.789ZM30.629,77.305L28.958,77.305C18.48,63.821,41.137,63.605,30.629,77.305ZM31.987,26.581C27.503,29.435,23.683,22.526,27.735,20.224C32.595,17.462,35.508,24.341,31.987,26.581ZM31.987,26.581"/>
</g>
  <g id="Light-S" transform="matrix(1.0,0.0,0.0,1.0,1124.6540068480545,614.2573397175481)">  <path stroke-width="1px" stroke="none" stroke-miterlimit="4" stroke-linejoin="miter" stroke-linecap="butt" stroke-opacity="1" fill-opacity="1" stroke-dasharray="none" fill="#000000" fill-rule="nonzero" d="M45.841,35.789C45.473,24.61,47.672,11.819,37.999,3.748C32.091,-1.181,27.806,-1.249,21.854,3.546C11.896,11.57,14.106,24.49,13.746,35.789C11.787,38.41,9.175,40.481,7.014,42.898C3.003,47.382,-2.315,50.773,1.086,58.042C4.297,64.905,11.029,61.698,15.388,62.973C15.676,63.057,19.83,66.584,19.989,66.839C20.647,67.897,19.745,70.706,19.98,72.458C20.378,75.404,26.137,84.383,29.205,84.853C32.949,85.427,39.164,75.729,39.606,72.458C39.844,70.706,38.941,67.897,39.599,66.839C39.757,66.584,43.911,63.057,44.2,62.973C48.885,61.601,52.659,65.023,57.246,59.602C65.089,50.332,50.62,42.171,45.841,35.789ZM30.629,77.305L28.958,77.305C18.48,63.821,41.137,63.605,30.629,77.305ZM31.987,26.581C27.503,29.435,23.683,22.526,27.735,20.224C32.595,17.462,35.508,24.341,31.987,26.581ZM31.987,26.581"/>
</g>
  <g id="Thin-S" transform="matrix(1.0,0.0,0.0,1.0,827.9440068480544,614.2573397175481)">  <path fill="#000000" stroke-width="1px" stroke-miterlimit="4" fill-opacity="1" stroke-linecap="butt" fill-rule="nonzero" stroke-linejoin="miter" stroke-opacity="1" stroke="none" stroke-dasharray="none" d="M45.841,35.789C45.473,24.61,47.672,11.819,37.999,3.748C32.091,-1.181,27.806,-1.249,21.854,3.546C11.896,11.57,14.106,24.49,13.746,35.789C11.787,38.41,9.175,40.481,7.014,42.898C3.003,47.382,-2.315,50.773,1.086,58.042C4.297,64.905,11.029,61.698,15.388,62.973C15.676,63.057,19.83,66.584,19.989,66.839C20.647,67.897,19.745,70.706,19.98,72.458C20.378,75.404,26.137,84.383,29.205,84.853C32.949,85.427,39.164,75.729,39.606,72.458C39.844,70.706,38.941,67.897,39.599,66.839C39.757,66.584,43.911,63.057,44.2,62.973C48.885,61.601,52.659,65.023,57.246,59.602C65.089,50.332,50.62,42.171,45.841,35.789ZM30.629,77.305L28.958,77.305C18.48,63.821,41.137,63.605,30.629,77.305ZM31.987,26.581C27.503,29.435,23.683,22.526,27.735,20.224C32.595,17.462,35.508,24.341,31.987,26.581ZM31.987,26.581"/>
</g>
  <g id="Ultralight-S" transform="matrix(1.0,0.0,0.0,1.0,531.2340068480544,614.2573397175481)">  <path stroke-miterlimit="4" stroke-dasharray="none" stroke="none" fill="#000000" stroke-width="1px" stroke-linecap="butt" stroke-linejoin="miter" stroke-opacity="1" fill-opacity="1" fill-rule="nonzero" d="M45.841,35.789C45.473,24.61,47.672,11.819,37.999,3.748C32.091,-1.181,27.806,-1.249,21.854,3.546C11.896,11.57,14.106,24.49,13.746,35.789C11.787,38.41,9.175,40.481,7.014,42.898C3.003,47.382,-2.315,50.773,1.086,58.042C4.297,64.905,11.029,61.698,15.388,62.973C15.676,63.057,19.83,66.584,19.989,66.839C20.647,67.897,19.745,70.706,19.98,72.458C20.378,75.404,26.137,84.383,29.205,84.853C32.949,85.427,39.164,75.729,39.606,72.458C39.844,70.706,38.941,67.897,39.599,66.839C39.757,66.584,43.911,63.057,44.2,62.973C48.885,61.601,52.659,65.023,57.246,59.602C65.089,50.332,50.62,42.171,45.841,35.789ZM30.629,77.305L28.958,77.305C18.48,63.821,41.137,63.605,30.629,77.305ZM31.987,26.581C27.503,29.435,23.683,22.526,27.735,20.224C32.595,17.462,35.508,24.341,31.987,26.581ZM31.987,26.581"/>
</g>
 </g>
</svg>
